<?xml version="1.0" encoding="UTF-8"?>
<svg version="1.1" xmlns="http://www.w3.org/2000/svg" width="335" height="241">
<path d="M0 0 C3.22509268 2.96416285 5.00754548 5.32411737 6.375 9.5 C7.035 8.819375 7.695 8.13875 8.375 7.4375 C9.37155361 6.45482596 10.37196553 5.47605799 11.375 4.5 C11.93316406 3.94570313 12.49132812 3.39140625 13.06640625 2.8203125 C22.01638924 -5.58781348 32.80004795 -10.40465908 45.12109375 -10.52734375 C56.90615423 -9.87540423 68.0955935 -5.2790582 76.19140625 3.4609375 C80.8474377 9.73899495 82.56511642 17.01559907 84.375 24.5 C87.33342067 24.5 89.22458869 23.03169301 91.8125 21.625 C102.23629544 16.36961803 112.72336594 15.08355228 124.07421875 18.25390625 C134.44177725 22.04846442 142.97238491 28.99006777 147.6875 39.0625 C150.28171417 45.02809799 150.51847695 50.94667626 150.4375 57.375 C150.43298828 58.06335938 150.42847656 58.75171875 150.42382812 59.4609375 C150.41216336 61.14066335 150.39423271 62.82034375 150.375 64.5 C151.47328125 64.26216797 151.47328125 64.26216797 152.59375 64.01953125 C162.49415424 62.17015799 172.24232782 63.96684856 180.9921875 69.0078125 C189.53020324 75.18853097 195.15750082 84.20980717 197.375 94.5 C198.69467385 106.12785585 197.58935553 115.43743292 190.1875 124.75 C184.72224256 130.62485917 178.09363206 133.69351165 170.375 135.5 C170.42140625 136.09425781 170.4678125 136.68851563 170.515625 137.30078125 C171.01644036 148.80164826 166.49255085 158.75224918 158.8203125 167.21484375 C149.70469366 175.78527007 136.12239729 179.35141238 123.875 179.875 C111.02445007 179.32357715 99.68877133 175.39041809 90.375 166.5 C89.43358236 165.24739153 88.51678202 163.97591762 87.625 162.6875 C86.8825 161.635625 86.14 160.58375 85.375 159.5 C84.715 159.5 84.055 159.5 83.375 159.5 C82.818125 160.36625 82.26125 161.2325 81.6875 162.125 C76.5039618 170.13592268 69.15383135 173.37420399 60.375 176.5 C59.06015625 176.98339844 59.06015625 176.98339844 57.71875 177.4765625 C47.20372976 180.86543951 35.04622866 181.17235546 24.78125 176.84375 C20.78248653 174.61067429 17.572989 171.75078598 14.375 168.5 C13.8078125 167.93410156 13.240625 167.36820313 12.65625 166.78515625 C12.2334375 166.36105469 11.810625 165.93695313 11.375 165.5 C10.94574219 165.85191406 10.51648438 166.20382813 10.07421875 166.56640625 C4.70040646 170.56285306 -0.95359194 173.00183666 -7.1875 175.3125 C-8.39176636 175.76508179 -8.39176636 175.76508179 -9.62036133 176.22680664 C-21.55675184 180.50962708 -35.32096029 181.47106163 -47.16015625 176.41796875 C-54.1944079 172.7363921 -58.23732357 167.64552942 -61.625 160.5 C-61.625 159.51 -61.625 158.52 -61.625 157.5 C-62.26824219 157.5721875 -62.91148438 157.644375 -63.57421875 157.71875 C-77.32966727 159.13157781 -91.13484158 160.04947335 -103.0625 151.75 C-110.6831328 145.31908625 -114.79183992 137.9290107 -115.90625 127.9921875 C-116.1810303 120.68761128 -114.70397813 113.6184672 -110.625 107.5 C-110.98492576 104.35538545 -112.31103168 102.21322321 -114.0625 99.625 C-119.69108479 90.81715695 -120.4242589 81.73818586 -118.46875 71.61328125 C-115.70442239 61.41342428 -110.06522876 53.82233781 -102.625 46.5 C-102.0371875 45.91347656 -101.449375 45.32695313 -100.84375 44.72265625 C-92.48547936 36.97548559 -82.00467359 33.17469604 -70.6875 33.375 C-70.00365234 33.38402344 -69.31980469 33.39304688 -68.61523438 33.40234375 C-66.95166713 33.42561042 -65.28828369 33.46146833 -63.625 33.5 C-63.94726562 32.46617188 -64.26953125 31.43234375 -64.6015625 30.3671875 C-66.82576112 22.53722105 -66.59395615 14.72649883 -62.80859375 7.45703125 C-57.1206437 -1.94779706 -48.13375001 -6.81818289 -37.625 -9.5 C-23.97638013 -12.64968151 -10.49988405 -9.03863763 0 0 Z " fill="#CAEFFE" transform="translate(135.625,13.5)"/>
<path d="M0 0 C3.46236126 2.39067801 5.74528805 5.0530761 7.625 8.8125 C8.1488576 14.06825165 8.29005372 18.45776095 5.9375 23.25 C1.4704076 28.2000213 -2.55796126 31.20055756 -9.375 31.8125 C-15.40945053 31.50091047 -19.66530315 29.54937896 -24.00390625 25.37109375 C-27.9188103 20.9208182 -28.49254124 14.5916112 -28.375 8.8125 C-26.16741633 5.50112449 -24.82509719 4.68755282 -21.375 2.8125 C-20.79621094 2.45671875 -20.21742188 2.1009375 -19.62109375 1.734375 C-13.16589178 -1.96921563 -7.03967299 -2.47692198 0 0 Z M-17.375 11.8125 C-18.61901278 14.19858611 -18.61901278 14.19858611 -18.375 16.8125 C-16.43973396 20.21856822 -15.16409444 21.5438721 -11.4375 22.8125 C-6.86005697 22.8125 -4.69081725 21.04342582 -1.4375 18 C-0.0549176 15.72865034 -0.0549176 15.72865034 -1.0625 12.6875 C-2.19831112 9.75612853 -2.19831112 9.75612853 -4.375 7.8125 C-10.10978991 7.2484223 -13.328411 7.27541537 -17.375 11.8125 Z " fill="#3DACFE" transform="translate(233.375,207.1875)"/>
<path d="M0 0 C3.00760269 4.51140404 2.80945959 9.18112236 3.25 14.5 C3.4046875 16.08748047 3.4046875 16.08748047 3.5625 17.70703125 C3.65015625 18.72152344 3.7378125 19.73601562 3.828125 20.78125 C3.9096582 21.71001953 3.99119141 22.63878906 4.07519531 23.59570312 C4 26 4 26 2 29 C-0.5 29.3125 -0.5 29.3125 -3 29 C-5.52480693 26.47519307 -5.55738633 24.86176966 -6.125 21.375 C-6.29257813 20.37210938 -6.46015625 19.36921875 -6.6328125 18.3359375 C-6.75398438 17.56507813 -6.87515625 16.79421875 -7 16 C-7.45632812 16.47695312 -7.91265625 16.95390625 -8.3828125 17.4453125 C-10.32820547 19.3155212 -11.3038853 19.84140502 -14 20 C-16.75 18.5625 -16.75 18.5625 -19 17 C-19.13277344 17.63808594 -19.26554688 18.27617187 -19.40234375 18.93359375 C-19.57894531 19.75988281 -19.75554687 20.58617187 -19.9375 21.4375 C-20.11152344 22.26121094 -20.28554687 23.08492187 -20.46484375 23.93359375 C-21 26 -21 26 -22 27 C-25 27.125 -25 27.125 -28 27 C-29 26 -29 26 -29.1328125 23.41015625 C-29.0877193 4.0877193 -29.0877193 4.0877193 -26 1 C-23.3125 0.5 -23.3125 0.5 -20 1 C-17.4322263 2.77016864 -15.20905756 4.80401379 -13 7 C-12.21625 6.030625 -11.4325 5.06125 -10.625 4.0625 C-7.41340303 0.09026164 -5.16664848 -0.43055404 0 0 Z " fill="#3DACFE" transform="translate(191,210)"/>
<path d="M0 0 C2.625 1.0625 2.625 1.0625 3.62109375 2.9140625 C4.37207142 4.94781064 5.04019594 6.97527248 5.625 9.0625 C6.06070313 8.47339844 6.49640625 7.88429687 6.9453125 7.27734375 C8.73814878 5.01495511 10.45227043 2.96634886 12.625 1.0625 C16.0625 1.0625 16.0625 1.0625 18.625 2.0625 C19.375 3.6875 19.375 3.6875 19.625 6.0625 C17.875 9 17.875 9 15.625 12.0625 C14.635 13.7125 13.645 15.3625 12.625 17.0625 C16.255 19.7025 19.885 22.3425 23.625 25.0625 C23.295 27.0425 22.965 29.0225 22.625 31.0625 C19.24020953 32.19488877 17.99018683 32.24336851 14.73046875 30.62890625 C13.76753906 29.96761719 12.80460937 29.30632812 11.8125 28.625 C10.83667969 27.96628906 9.86085938 27.30757812 8.85546875 26.62890625 C7.75138672 25.85353516 7.75138672 25.85353516 6.625 25.0625 C6.480625 25.701875 6.33625 26.34125 6.1875 27 C5.625 29.0625 5.625 29.0625 4.625 30.0625 C2.1875 30.25 2.1875 30.25 -0.375 30.0625 C-3.76867978 26.66882022 -3.50552584 21.87245716 -4.125 17.25 C-4.27582031 16.25162109 -4.42664063 15.25324219 -4.58203125 14.22460938 C-4.71480469 13.25716797 -4.84757812 12.28972656 -4.984375 11.29296875 C-5.10780273 10.41020264 -5.23123047 9.52743652 -5.35839844 8.61791992 C-5.37772026 5.64377954 -4.66756513 3.72108466 -3.375 1.0625 C-2.375 0.0625 -2.375 0.0625 0 0 Z " fill="#3DACFE" transform="translate(86.375,205.9375)"/>
<path d="M0 0 C2.4375 0.875 2.4375 0.875 3.56640625 2.4765625 C5.89097927 8.87695638 5.60487593 18.38869376 2.8125 24.625 C0.59904458 28.14500896 -1.45333751 29.80966158 -5.5625 30.875 C-10.86815543 30.73022289 -14.49753141 29.78466067 -18.5625 26.3125 C-22.49837341 19.54771758 -23.56106953 11.64328353 -22.5625 3.875 C-21.9025 3.215 -21.2425 2.555 -20.5625 1.875 C-17.5 2.125 -17.5 2.125 -14.5625 2.875 C-13.09680585 5.8063883 -12.94163782 8.76132266 -12.5 12 C-12.32339844 13.28132812 -12.14679688 14.56265625 -11.96484375 15.8828125 C-11.83207031 16.87023437 -11.69929687 17.85765625 -11.5625 18.875 C-9.0875 19.865 -9.0875 19.865 -6.5625 20.875 C-4.42604428 14.21428512 -4.62411953 8.77336454 -5.5625 1.875 C-2.5625 -0.125 -2.5625 -0.125 0 0 Z " fill="#3CACFE" transform="translate(142.5625,208.125)"/>
<path d="M0 0 C2.8125 -0.25 2.8125 -0.25 6 0 C8.04040776 2.04040776 9 3.08325244 9 6 C10.8871875 5.690625 10.8871875 5.690625 12.8125 5.375 C16.4014758 4.78664331 16.75073878 4.83382585 20 7 C19.75 10.3125 19.75 10.3125 19 14 C17.0625 15.625 17.0625 15.625 15 17 C13.79549696 19.55183404 13.79549696 19.55183404 13 22 C12.67 22.33 12.34 22.66 12 23 C10.6078125 22.9071875 10.6078125 22.9071875 9.1875 22.8125 C5.89246617 22.64607383 5.89246617 22.64607383 4 25.0625 C3.34 25.701875 2.68 26.34125 2 27 C-1.1875 26.875 -1.1875 26.875 -4 26 C-5.20449127 23.59101747 -4.976328 22.29052585 -4.8125 19.625 C-4.6920055 15.76055215 -4.6920055 15.76055215 -7.0625 12.6875 C-7.701875 12.130625 -8.34125 11.57375 -9 11 C-8.82246387 7.98188578 -8.16264785 7.16264785 -6 5 C-3.375 4.875 -3.375 4.875 -1 5 C-0.67 3.35 -0.34 1.7 0 0 Z " fill="#FEFAB8" transform="translate(11,185)"/>
<path d="M0 0 C3.58547115 0.07738427 4.22031692 0.41461929 7.25 2.75 C10.36553369 7.18121515 9.95726031 12.27142466 9.25 17.4375 C7.76947649 21.58296584 6.22518884 24.39311717 2.25 26.4375 C-0.6875 26.9375 -0.6875 26.9375 -3.75 26.4375 C-7.71409278 23.17813483 -9.50946525 20.84971991 -10.0234375 15.6953125 C-10.29323914 7.37296957 -10.29323914 7.37296957 -8.66796875 4.57421875 C-7.3125 3.25 -7.3125 3.25 -4.75 1.4375 C-3.75 0.4375 -3.75 0.4375 0 0 Z " fill="#212122" transform="translate(186.75,62.5625)"/>
<path d="M0 0 C3.59370889 1.21218801 6.93369338 2.91307131 10.3125 4.625 C11.63701172 5.29402344 11.63701172 5.29402344 12.98828125 5.9765625 C13.98408203 6.48316406 13.98408203 6.48316406 15 7 C14.75 10.375 14.75 10.375 14 14 C12 15.125 12 15.125 10 16 C9.26259783 18.51948778 9.26259783 18.51948778 9 21 C8.67 21.33 8.34 21.66 8 22 C6.02083871 21.73611183 4.04194083 21.46947969 2.06640625 21.1796875 C-0.14091087 20.88340879 -0.14091087 20.88340879 -2.8125 21.625 C-5 22 -5 22 -6.875 21 C-8.62020832 17.89740743 -7.69997967 15.3726293 -7 12 C-8.32 11.34 -9.64 10.68 -11 10 C-11.04254356 8.00045254 -11.04080783 5.99958364 -11 4 C-10 3 -10 3 -8.15234375 2.90234375 C-6.1015625 2.93489583 -4.05078125 2.96744792 -2 3 C-2 2.34 -2 1.68 -2 1 C-1.34 0.67 -0.68 0.34 0 0 Z " fill="#FEFBB8" transform="translate(302,9)"/>
<path d="M0 0 C3.11297386 0.84309709 4.16125466 1.23825652 6 3.8125 C8.26310747 7.98138217 8.58397073 12.15898327 8 16.8125 C6.70850435 20.41509314 5.61656566 22.29591796 2.6875 24.75 C-0.77338831 26.11825817 -2.48302558 26.00976789 -6 24.8125 C-8.99975035 22.52321684 -9.87184657 20.74618929 -10.3828125 17.0234375 C-10.61903431 10.67694486 -10.35883153 6.54494566 -6 1.8125 C-3 -0.1875 -3 -0.1875 0 0 Z " fill="#232424" transform="translate(147,61.1875)"/>
<path d="M0 0 C1.67542976 0.28604898 3.34385343 0.61781233 5 1 C5.33 1.99 5.66 2.98 6 4 C7.6026782 4.10824843 9.20745748 4.18570645 10.8125 4.25 C12.15248047 4.31960937 12.15248047 4.31960937 13.51953125 4.390625 C16.16674709 4.23981033 16.16674709 4.23981033 17.82421875 1.984375 C18.21222656 1.32953125 18.60023438 0.6746875 19 0 C21.475 0.495 21.475 0.495 24 1 C24.8125 3.125 24.8125 3.125 25 6 C21.13432836 11.43283582 21.13432836 11.43283582 18 13 C6.7344591 14.02873951 6.7344591 14.02873951 2.375 11.1875 C0 9 0 9 -2 6 C-1.45945946 1.45945946 -1.45945946 1.45945946 0 0 Z " fill="#232424" transform="translate(154,116)"/>
<path d="M0 0 C3.0625 2.125 3.0625 2.125 5 5 C5.06625411 8.8427383 4.81899419 10.99200716 2.375 14 C-1.15894174 15.48797547 -3.34936217 15.04303938 -7 14 C-10.22640449 11.18723712 -10.92312173 9.6369914 -11.4375 5.375 C-11 2 -11 2 -10 0 C-6.63625508 -1.68187246 -3.45250596 -1.086031 0 0 Z " fill="#FDE2D7" transform="translate(239,103)"/>
<path d="M0 0 C5.36432161 0.76633166 5.36432161 0.76633166 7.5 3.5 C7.95364856 6.6755399 8.18938436 8.48847886 7.5 11.5 C5.4375 14.0625 5.4375 14.0625 2.5 15.5 C-1.01972785 15.43931504 -3.41947533 15.16225706 -6.4375 13.3125 C-8.0681027 10.53088363 -7.94339036 8.66707399 -7.5 5.5 C-5.38646148 1.61108912 -4.4319997 0.63314281 0 0 Z " fill="#FDE2D7" transform="translate(101.5,99.5)"/>
</svg>
